%TF.GenerationSoftware,KiCad,Pcbnew,10.0.6*%
%TF.CreationDate,2026-09-30T13:52:43+02:00*%
%TF.ProjectId,makropad,6d616b72-6f70-4616-942e-6b696361645f,rev?*%
%TF.SameCoordinates,Original*%
%TF.FileFunction,Soldermask,Bot*%
%TF.FilePolarity,Negative*%
%FSLAX46Y46*%
G04 Gerber Fmt 4.6, Leading zero omitted, Abs format (unit mm)*
G04 Created by KiCad (PCBNEW 10.0.6) date 2026-09-30 13:52:43*
%MOMM*%
%LPD*%
G01*
G04 APERTURE LIST*
G04 Aperture macros list*
%AMRoundRect*
0 Rectangle with rounded corners*
0 $1 Rounding radius*
0 $2 $3 $4 $5 $6 $7 $8 $9 X,Y pos of 4 corners*
0 Add a 4 corners polygon primitive as box body*
4,1,4,$2,$3,$4,$5,$6,$7,$8,$9,$2,$3,0*
0 Add four circle primitives for the rounded corners*
1,1,$1+$1,$2,$3*
1,1,$1+$1,$4,$5*
1,1,$1+$1,$6,$7*
1,1,$1+$1,$8,$9*
0 Add four rect primitives between the rounded corners*
20,1,$1+$1,$2,$3,$4,$5,0*
20,1,$1+$1,$4,$5,$6,$7,0*
20,1,$1+$1,$6,$7,$8,$9,0*
20,1,$1+$1,$8,$9,$2,$3,0*%
%AMFreePoly0*
4,1,37,0.603843,0.796157,0.639018,0.796157,0.711114,0.766294,0.766294,0.711114,0.796157,0.639018,0.796157,0.603843,0.800000,0.600000,0.800000,-0.600000,0.796157,-0.603843,0.796157,-0.639018,0.766294,-0.711114,0.711114,-0.766294,0.639018,-0.796157,0.603843,-0.796157,0.600000,-0.800000,0.000000,-0.800000,0.000000,-0.796148,-0.078414,-0.796148,-0.232228,-0.765552,-0.377117,-0.705537,
-0.507515,-0.618408,-0.618408,-0.507515,-0.705537,-0.377117,-0.765552,-0.232228,-0.796148,-0.078414,-0.796148,0.078414,-0.765552,0.232228,-0.705537,0.377117,-0.618408,0.507515,-0.507515,0.618408,-0.377117,0.705537,-0.232228,0.765552,-0.078414,0.796148,0.000000,0.796148,0.000000,0.800000,0.600000,0.800000,0.603843,0.796157,0.603843,0.796157,$1*%
%AMFreePoly1*
4,1,37,0.000000,0.796148,0.078414,0.796148,0.232228,0.765552,0.377117,0.705537,0.507515,0.618408,0.618408,0.507515,0.705537,0.377117,0.765552,0.232228,0.796148,0.078414,0.796148,-0.078414,0.765552,-0.232228,0.705537,-0.377117,0.618408,-0.507515,0.507515,-0.618408,0.377117,-0.705537,0.232228,-0.765552,0.078414,-0.796148,0.000000,-0.796148,0.000000,-0.800000,-0.600000,-0.800000,
-0.603843,-0.796157,-0.639018,-0.796157,-0.711114,-0.766294,-0.766294,-0.711114,-0.796157,-0.639018,-0.796157,-0.603843,-0.800000,-0.600000,-0.800000,0.600000,-0.796157,0.603843,-0.796157,0.639018,-0.766294,0.711114,-0.711114,0.766294,-0.639018,0.796157,-0.603843,0.796157,-0.600000,0.800000,0.000000,0.800000,0.000000,0.796148,0.000000,0.796148,$1*%
G04 Aperture macros list end*
%ADD10C,1.700000*%
%ADD11C,4.000000*%
%ADD12C,2.200000*%
%ADD13C,1.850000*%
%ADD14RoundRect,0.200000X-0.600000X-0.600000X0.600000X-0.600000X0.600000X0.600000X-0.600000X0.600000X0*%
%ADD15C,1.600000*%
%ADD16FreePoly0,0.000000*%
%ADD17FreePoly1,0.000000*%
G04 APERTURE END LIST*
D10*
%TO.C,SW3*%
X218440000Y-87630000D03*
D11*
X223520000Y-87630000D03*
D10*
X228600000Y-87630000D03*
D12*
X226060000Y-82550000D03*
X219710000Y-85090000D03*
%TD*%
D10*
%TO.C,SW1*%
X199390000Y-68580000D03*
D11*
X204470000Y-68580000D03*
D10*
X209550000Y-68580000D03*
D12*
X207010000Y-63500000D03*
X200660000Y-66040000D03*
%TD*%
D10*
%TO.C,SW2*%
X199390000Y-87630000D03*
D11*
X204470000Y-87630000D03*
D10*
X209550000Y-87630000D03*
D12*
X207010000Y-82550000D03*
X200660000Y-85090000D03*
%TD*%
%TO.C,A1*%
X180155000Y-47120000D03*
D13*
X180455000Y-50150000D03*
X185305000Y-50150000D03*
D12*
X185605000Y-47120000D03*
D14*
X173990000Y-46990000D03*
D15*
X173990000Y-49530000D03*
D16*
X173990000Y-52070000D03*
D15*
X173990000Y-54610000D03*
X173990000Y-57150000D03*
X173990000Y-59690000D03*
X173990000Y-62230000D03*
D16*
X173990000Y-64770000D03*
D15*
X173990000Y-67310000D03*
X173990000Y-69850000D03*
X173990000Y-72390000D03*
X173990000Y-74930000D03*
D16*
X173990000Y-77470000D03*
D15*
X173990000Y-80010000D03*
X173990000Y-82550000D03*
X173990000Y-85090000D03*
X173990000Y-87630000D03*
D16*
X173990000Y-90170000D03*
D15*
X173990000Y-92710000D03*
X173990000Y-95250000D03*
X191770000Y-95250000D03*
X191770000Y-92710000D03*
D17*
X191770000Y-90170000D03*
D15*
X191770000Y-87630000D03*
X191770000Y-85090000D03*
X191770000Y-82550000D03*
X191770000Y-80010000D03*
D17*
X191770000Y-77470000D03*
D15*
X191770000Y-74930000D03*
X191770000Y-72390000D03*
X191770000Y-69850000D03*
X191770000Y-67310000D03*
D17*
X191770000Y-64770000D03*
D15*
X191770000Y-62230000D03*
X191770000Y-59690000D03*
X191770000Y-57150000D03*
X191770000Y-54610000D03*
D17*
X191770000Y-52070000D03*
D15*
X191770000Y-49530000D03*
X191770000Y-46990000D03*
%TD*%
D10*
%TO.C,SW4*%
X218440000Y-68580000D03*
D11*
X223520000Y-68580000D03*
D10*
X228600000Y-68580000D03*
D12*
X226060000Y-63500000D03*
X219710000Y-66040000D03*
%TD*%
M02*
